<?xml version="1.0" encoding="UTF-8"?><svg id="a" xmlns="http://www.w3.org/2000/svg" viewBox="0 0 1080 305.11"><defs><style>.b{fill:#fff;}.c{fill:#fc5a45;}.d{fill:#0e686b;}</style></defs><g><path class="c" d="M140.9,152.84c0-24.22,11.96-45.64,30.31-58.68-9.51-5.2-20.41-8.15-32-8.15-36.91,0-66.83,29.92-66.83,66.83v66.83h66.83c11.6,0,22.5-2.95,32-8.15-18.34-13.04-30.31-34.46-30.31-58.68Z"/><path class="d" d="M279.66,152.84v66.83h-66.83c-36.91,0-66.83-29.92-66.83-66.83s29.92-66.83,66.83-66.83,66.83,29.92,66.83,66.83Z"/></g><g><path class="b" d="M437.23,161.28v39.42c0,4.84-2.54,7.85-6.82,7.85s-6.98-3.01-6.98-7.85v-37.75c0-15.54-6.19-23.72-17.93-23.72s-19.68,10.02-19.68,26.39v35.08c0,4.84-2.54,7.85-6.98,7.85-4.13,0-6.82-3.01-6.82-7.85v-37.75c0-15.54-6.19-23.72-18.09-23.72s-19.68,10.02-19.68,26.39v35.08c0,4.84-2.54,7.85-6.98,7.85s-6.82-3.01-6.82-7.85v-65.98c0-5.01,2.54-8.02,6.82-8.02s6.98,3.01,6.98,8.02v2h.32c4.92-7.18,12.85-11.02,22.53-11.02,11.27,0,19.36,4.84,23.8,13.86h.32c5.24-8.85,14.28-13.86,26.82-13.86,19.52,0,29.2,12.36,29.2,35.58Z"/><path class="b" d="M491.98,125.7c23.96,0,40.47,17.04,40.47,41.93s-16.5,41.93-40.47,41.93-40.31-17.04-40.31-41.93,16.35-41.93,40.31-41.93Zm0,70.32c15.71,0,26.34-11.53,26.34-28.4s-10.63-28.4-26.34-28.4-26.18,11.53-26.18,28.4,10.63,28.4,26.18,28.4Z"/><path class="b" d="M585.76,125.7c23.96,0,40.47,17.04,40.47,41.93s-16.5,41.93-40.47,41.93-40.31-17.04-40.31-41.93,16.35-41.93,40.31-41.93Zm0,70.32c15.71,0,26.34-11.53,26.34-28.4s-10.63-28.4-26.34-28.4-26.18,11.53-26.18,28.4,10.63,28.4,26.18,28.4Z"/><path class="b" d="M719.7,97.64v103.06c0,4.84-2.7,7.85-6.98,7.85s-6.82-3.01-6.82-7.85v-4.51h-.32c-6.03,8.52-16.03,13.36-28.72,13.36-22.53,0-37.61-16.7-37.61-41.93s15.08-41.93,37.61-41.93c12.7,0,22.69,5.01,28.72,13.36h.32v-41.43c0-5.01,2.54-8.02,6.82-8.02s6.98,3.01,6.98,8.02Zm-13.81,69.99c0-16.7-10.79-28.4-26.5-28.4s-26.03,11.53-26.03,28.4,10.63,28.4,26.03,28.4,26.5-11.69,26.5-28.4Z"/><path class="b" d="M791.43,195.02c-4.44,9.69-13.49,14.53-25.39,14.53-17.77,0-28.57-11.86-28.57-31.74V108.33c0-4.84,2.7-7.85,6.98-7.85s6.82,3.01,6.82,7.85v19.38h30.15c4.28,0,6.82,2.67,6.82,6.85s-2.54,6.68-6.82,6.68h-30.15v37.08c0,11.19,5.71,17.71,15.39,17.71,6.51,0,10.63-3.01,13.81-8.35,1.11-1.67,2.7-3.01,5.4-3.01,3.65,0,6.35,2.84,6.35,7.02,0,1.17-.32,2.34-.79,3.34Z"/><path class="b" d="M880.3,134.72v65.98c0,4.84-2.7,7.85-6.98,7.85s-6.82-3.01-6.82-7.85v-4.51h-.32c-6.03,8.52-16.03,13.36-28.72,13.36-22.53,0-37.61-16.7-37.61-41.93s15.08-41.93,37.61-41.93c12.7,0,22.69,5.01,28.72,13.36h.32v-4.34c0-5.01,2.54-8.02,6.82-8.02s6.98,3.01,6.98,8.02Zm-13.81,32.91c0-16.7-10.79-28.4-26.5-28.4s-26.03,11.53-26.03,28.4,10.63,28.4,26.03,28.4,26.5-11.69,26.5-28.4Z"/><path class="b" d="M913.78,97.47v103.23c0,4.84-2.54,7.85-6.98,7.85s-6.82-3.01-6.82-7.85V97.47c0-4.84,2.54-7.85,6.82-7.85s6.98,3.01,6.98,7.85Z"/><path class="b" d="M1000.59,195.35c1.59,2,2.22,3.51,2.22,6.01,0,4.18-2.7,7.18-6.82,7.18-2.38,0-4.44-1.17-6.03-3.17l-28.09-34.91-14.6,11.69v18.54c0,4.84-2.54,7.85-6.98,7.85s-6.82-3.01-6.82-7.85V97.47c0-4.84,2.54-7.85,6.82-7.85s6.98,3.01,6.98,7.85v68.32l42.53-36.41c1.9-1.67,3.65-2.67,5.71-2.67,3.81,0,6.51,2.84,6.51,7.18,0,2.84-.95,4.51-3.17,6.35l-26.34,21.72,28.09,33.41Z"/></g></svg>